<svg width="15" height="17" viewBox="0 0 15 17" fill="none" xmlns="http://www.w3.org/2000/svg">
<path d="M9 9.69727H6C2.9375 9.69727 0.5 12.166 0.5 15.1973C0.5 15.7598 0.9375 16.1973 1.5 16.1973H13.5C14.0312 16.1973 14.5 15.7598 14.5 15.1973C14.5 12.166 12.0312 9.69727 9 9.69727ZM2 14.6973C2.25 12.7285 3.9375 11.1973 6 11.1973H9C11.0312 11.1973 12.7188 12.7285 12.9688 14.6973H2ZM7.5 8.19727C9.6875 8.19727 11.5 6.41602 11.5 4.19727C11.5 2.00977 9.6875 0.197266 7.5 0.197266C5.28125 0.197266 3.5 2.00977 3.5 4.19727C3.5 6.41602 5.28125 8.19727 7.5 8.19727ZM7.5 1.69727C8.875 1.69727 10 2.82227 10 4.19727C10 5.60352 8.875 6.69727 7.5 6.69727C6.09375 6.69727 5 5.60352 5 4.19727C5 2.82227 6.09375 1.69727 7.5 1.69727Z" fill="#0E59F2"/>
</svg>
