<svg width="15" height="17" viewBox="0 0 15 17" fill="none" xmlns="http://www.w3.org/2000/svg">
<path d="M12.5 2.19727H11.25V0.947266C11.25 0.541016 10.9062 0.197266 10.5 0.197266C10.125 0.197266 9.75 0.541016 9.75 0.947266V2.19727H5.25V0.947266C5.25 0.541016 4.90625 0.197266 4.5 0.197266C4.0625 0.197266 3.75 0.541016 3.75 0.947266V2.19727H2.5C1.375 2.19727 0.5 3.10352 0.5 4.19727V14.1973C0.5 15.3223 1.375 16.1973 2.5 16.1973H12.5C13.5938 16.1973 14.5 15.3223 14.5 14.1973V4.19727C14.5 3.10352 13.5938 2.19727 12.5 2.19727ZM12.5 14.6973H2.5C2.21875 14.6973 2 14.4785 2 14.1973V6.19727H13V14.1973C13 14.4785 12.75 14.6973 12.5 14.6973Z" fill="#0E59F2"/>
</svg>
